<svg xmlns="http://www.w3.org/2000/svg" viewBox="0 0 128 128"><style></style><path id="ESPANSI" fill="#c5c3c6" d="M101.33 93.1l-27.3-27.36c-.44-.44-.65-1-.69-1.58.01-.11.01-.22 0-.33.04-.57.25-1.14.69-1.58l27.3-27.36c.96-.96.96-2.53 0-3.49l-5.99-5.99c-.96-.96-2.53-.96-3.49 0l-26.1 26.12c-.96.96-2.53.96-3.49 0L36.15 25.42c-.96-.96-2.53-.96-3.49 0l-5.99 5.99c-.96.96-.96 2.53 0 3.49l27.3 27.36c.44.44.65 1 .69 1.58-.01.11-.01.22 0 .33-.04.57-.25 1.14-.69 1.58L26.67 93.1c-.96.96-.96 2.53 0 3.49l5.99 5.99c.96.96 2.53.96 3.49 0l26.1-26.1c.97-.97 2.55-.97 3.52 0l26.1 26.1c.96.96 2.53.96 3.49 0l5.99-5.99c.95-.96.95-2.52-.02-3.49z"/></svg>